<svg version="1.2" xmlns="http://www.w3.org/2000/svg" viewBox="0 0 268 267" width="515" height="513">
	<title>facebook-logo</title>
	<style>
		.s0 { fill: #ffffff } 
	</style>
	<path id="Layer" class="s0" d="m252.7 0.6h-237.4c-8.2 0-14.7 6.5-14.7 14.7v237.4c0 8.2 6.5 14.7 14.7 14.7h127.8v-103.3h-34.8v-40.3h34.8v-29.7c0-34.5 21.1-53.2 51.8-53.2 14.7 0 27.4 1.1 31.1 1.5v36.1h-21.3c-16.8 0-20 7.9-20 19.6v25.7h39.9l-5.2 40.3h-34.7v103.3h68c8.2 0 14.7-6.5 14.7-14.7v-237.4c0-8.2-6.5-14.7-14.7-14.7z"/>
</svg>