<svg version="1.1" id="Layer_1" xmlns="http://www.w3.org/2000/svg" xmlns:xlink="http://www.w3.org/1999/xlink" x="0px" y="0px"
	 width="100%" viewBox="0 0 518 527" xml:space="preserve">
<path fill="#EA4435" opacity="1.000000" stroke="none" 
	d="
M376.437408,28.072845 
	C376.437408,28.072845 376.502228,28.010532 376.640381,28.363071 
	C377.799683,29.244261 378.820831,29.772911 379.841980,30.301559 
	C401.440948,41.364021 421.508301,54.610382 439.206421,71.857872 
	C438.329865,72.900154 437.579041,73.939667 436.684265,74.835449 
	C414.196625,97.348953 391.655853,119.809692 369.244446,142.398758 
	C366.617767,145.046265 365.160736,145.401581 362.011749,142.724792 
	C341.721039,125.476852 319.111450,112.661789 292.264832,109.071121 
	C280.721588,107.527252 268.977936,105.703049 257.441345,106.289268 
	C238.361893,107.258766 219.924347,111.706276 202.253479,119.773155 
	C185.205063,127.555878 170.043472,137.854645 156.906525,150.855225 
	C141.601730,166.001129 129.275803,183.428223 121.967445,204.007217 
	C120.949249,206.874283 119.471283,209.578064 117.690186,212.653534 
	C116.033249,212.301758 114.794044,211.781036 113.766129,210.986847 
	C99.544243,199.998886 85.374664,188.943207 71.144676,177.965790 
	C57.712593,167.603912 44.224449,157.314682 30.760971,146.993484 
	C38.310150,131.817001 47.509312,117.719673 58.002209,104.402832 
	C68.647881,90.892090 80.190781,78.293335 93.319664,67.149986 
	C108.891724,53.932949 125.414810,42.150059 143.756424,33.036903 
	C151.584320,29.147558 159.093887,24.381365 167.268723,21.481014 
	C179.949692,16.981930 192.946884,13.189898 206.046799,10.102889 
	C222.129410,6.313008 238.465942,3.519001 255.089966,3.516433 
	C275.479431,3.513283 295.881805,3.330565 315.820129,8.858017 
	C327.655731,12.139169 339.644196,14.866337 351.502808,18.068878 
	C354.739807,18.943064 357.755676,20.636021 361.512268,22.221613 
	C365.591187,23.690290 369.030914,24.890575 372.470612,26.090862 
	C372.470612,26.090860 372.498779,26.000458 372.745575,26.328997 
	C373.477753,26.796654 373.963135,26.935772 374.448517,27.074890 
	C374.448517,27.074890 374.493958,27.023190 374.760254,27.316216 
	C375.496826,27.763777 375.967133,27.918312 376.437408,28.072845 
z"/>
<path fill="#35A853" opacity="1.000000" stroke="none" 
	d="
M277.005859,422.894897 
	C283.823334,421.928528 290.744965,421.417236 297.433228,419.886353 
	C306.851288,417.730621 316.401367,415.584198 325.332794,412.023590 
	C334.971619,408.180969 343.962555,402.713348 353.907043,398.044495 
	C373.414978,412.680206 392.229370,427.255524 411.099060,441.758850 
	C420.052277,448.640320 429.111023,455.384460 438.121948,462.190796 
	C426.426361,470.986694 415.168549,480.453918 402.937927,488.429260 
	C381.848724,502.181061 358.810791,511.832977 334.111664,517.088196 
	C320.247498,520.038025 306.291809,522.592102 292.315277,524.957581 
	C288.269287,525.642273 284.008209,525.056335 278.923676,525.053345 
	C268.651855,525.067017 259.302155,525.080200 249.952438,525.093384 
	C233.067886,525.209412 216.707687,521.693665 200.443512,517.729126 
	C183.746887,513.659119 167.505829,508.197662 152.305603,500.058655 
	C140.393478,493.680298 128.223785,487.638641 116.954330,480.249023 
	C107.547340,474.080688 99.211906,466.256042 90.523499,459.018951 
	C75.308220,446.345184 62.435310,431.521759 51.549488,415.042511 
	C44.372021,404.177032 37.803177,392.909546 31.251083,381.361816 
	C32.388783,380.389008 33.298717,379.955750 34.076588,379.352264 
	C51.819832,365.586700 69.509064,351.751190 87.295479,338.041718 
	C97.427826,330.231842 107.714478,322.622131 117.931656,314.922302 
	C122.141617,324.573822 125.565659,334.677795 130.787079,343.746979 
	C135.806198,352.464874 142.809616,360.022583 148.722504,368.247284 
	C160.891342,385.173859 177.787155,396.369019 195.419388,406.512482 
	C201.687622,410.118469 208.826080,412.211792 216.236389,415.266968 
	C220.399612,416.380890 223.893738,417.223419 227.387878,418.065979 
	C227.387878,418.065979 227.615341,417.969940 227.977661,418.304443 
	C230.516876,419.148468 232.693741,419.657990 234.870621,420.167511 
	C239.044449,420.783905 243.218262,421.400299 248.205627,422.192383 
	C258.348053,422.543701 267.676971,422.719299 277.005859,422.894897 
z"/>
<path fill="#4285F4" opacity="1.000000" stroke="none" 
	d="
M438.414398,461.991760 
	C429.111023,455.384460 420.052277,448.640320 411.099060,441.758850 
	C392.229370,427.255524 373.414978,412.680206 354.261871,397.986450 
	C359.623199,393.069305 365.622803,388.630768 370.918671,383.470062 
	C388.104248,366.723053 398.653107,346.121765 404.907379,323.161285 
	C405.285950,321.771576 405.388641,320.306671 405.474426,318.307587 
	C403.051300,317.463196 400.773773,316.951263 398.495453,316.947754 
	C354.070312,316.879089 309.645050,316.869720 265.170776,316.391235 
	C265.065857,285.285156 265.003845,254.636078 264.958252,223.986954 
	C264.946381,216.015472 264.969940,216.002625 273.004700,216.002258 
	C349.964966,215.998856 426.925262,215.997986 503.885529,216.012131 
	C505.879517,216.012497 507.873474,216.192230 509.867432,216.288330 
	C509.867432,216.288330 510.015686,216.525848 510.161865,216.829865 
	C510.462677,217.389267 510.633026,217.633682 510.819092,217.867126 
	C512.073059,228.270325 513.326965,238.673523 514.464539,249.817963 
	C514.219604,264.783600 514.091003,279.008026 513.962402,293.232422 
	C514.706482,306.291504 512.045776,318.971161 509.081482,331.511200 
	C505.735992,345.663879 502.773956,360.100525 497.438477,373.537445 
	C491.615936,388.200836 483.997681,402.304993 475.793030,415.821838 
	C468.740509,427.440582 459.969086,438.053467 451.536163,448.779663 
	C447.794983,453.538208 443.015167,457.480133 438.414398,461.991760 
z"/>
<path fill="#FBBC06" opacity="1.000000" stroke="none" 
	d="
M117.829651,314.567261 
	C107.714478,322.622131 97.427826,330.231842 87.295479,338.041718 
	C69.509064,351.751190 51.819832,365.586700 34.076588,379.352264 
	C33.298717,379.955750 32.388783,380.389008 31.199032,381.002441 
	C26.243563,370.326324 20.951775,359.778870 17.203222,348.708832 
	C13.348480,337.325134 11.046760,325.419098 7.981420,313.763763 
	C2.604649,293.319672 2.329028,272.416382 3.181333,251.562195 
	C3.671424,239.570663 5.956573,227.638107 7.681920,215.714920 
	C10.030609,199.484100 15.195446,184.006454 21.015656,168.758209 
	C23.775414,161.527985 27.109205,154.516891 30.471951,147.199997 
	C44.224449,157.314682 57.712593,167.603912 71.144676,177.965790 
	C85.374664,188.943207 99.544243,199.998886 113.766129,210.986847 
	C114.794044,211.781036 116.033249,212.301758 117.520416,212.992126 
	C115.254944,224.812363 111.994362,236.493240 110.217499,248.395615 
	C108.503922,259.874023 108.309143,271.544830 110.909393,283.106720 
	C112.892853,291.926025 114.290596,300.876007 116.048683,309.748108 
	C116.353554,311.286621 117.155365,312.726685 117.829651,314.567261 
z"/>
<path fill="#699EF7" opacity="1.000000" stroke="none" 
	d="
M509.821960,215.826111 
	C507.873474,216.192230 505.879517,216.012497 503.885529,216.012131 
	C426.925262,215.997986 349.964966,215.998856 273.004700,216.002258 
	C264.969940,216.002625 264.946381,216.015472 264.958252,223.986954 
	C265.003845,254.636078 265.065857,285.285156 264.901123,316.310364 
	C264.173126,316.454254 263.665771,316.221985 263.158417,315.989746 
	C263.158417,282.531372 263.158417,249.073029 263.158417,215.296280 
	C264.275726,215.195679 265.375702,215.010117 266.475647,215.009949 
	C346.263336,214.996872 426.051056,214.996750 505.838745,215.014145 
	C507.151367,215.014420 508.463928,215.242264 509.821960,215.826111 
z"/>
<path fill="#79A9F7" opacity="1.000000" stroke="none" 
	d="
M263.097260,316.427856 
	C263.665771,316.221985 264.173126,316.454254 264.950134,316.767334 
	C309.645050,316.869720 354.070312,316.879089 398.495453,316.947754 
	C400.773773,316.951263 403.051300,317.463196 405.677002,317.982391 
	C395.386444,318.150909 384.748108,318.018585 374.109711,318.010345 
	C338.680237,317.982971 303.250702,318.014832 267.821350,317.952148 
	C266.225616,317.949310 264.631165,317.244049 263.097260,316.427856 
z"/>
<path fill="#8AB4F8" opacity="1.000000" stroke="none" 
	d="
M514.338501,293.039276 
	C514.091003,279.008026 514.219604,264.783600 514.594849,250.205658 
	C515.231384,251.557419 515.940796,253.259384 515.958618,254.968567 
	C516.067444,265.387024 516.093262,275.808014 515.963745,286.225922 
	C515.936279,288.437469 515.150818,290.639648 514.338501,293.039276 
z"/>
<path fill="#80C994" opacity="1.000000" stroke="none" 
	d="
M276.768250,422.538300 
	C267.676971,422.719299 258.348053,422.543701 248.643494,422.286621 
	C257.688782,422.197327 267.109680,422.189514 276.768250,422.538300 
z"/>
<path fill="#B8E1C3" opacity="1.000000" stroke="none" 
	d="
M250.155533,525.481506 
	C259.302155,525.080200 268.651855,525.067017 278.458984,525.142090 
	C274.537933,525.475037 270.162018,525.842651 265.780365,525.932434 
	C260.642365,526.037720 255.499435,525.901245 250.155533,525.481506 
z"/>
<path fill="#F28C83" opacity="1.000000" stroke="none" 
	d="
M372.231110,25.782604 
	C369.030914,24.890575 365.591187,23.690290 361.906647,22.342442 
	C365.105072,23.288033 368.548340,24.381189 372.231110,25.782604 
z"/>
<path fill="#86CB99" opacity="1.000000" stroke="none" 
	d="
M227.167160,417.723236 
	C223.893738,417.223419 220.399612,416.380890 216.622253,415.372803 
	C219.874832,415.931641 223.410645,416.656067 227.167160,417.723236 
z"/>
<path fill="#86CB99" opacity="1.000000" stroke="none" 
	d="
M234.835693,419.769104 
	C232.693741,419.657990 230.516876,419.148468 228.078644,418.375458 
	C230.145126,418.531555 232.472946,418.951111 234.835693,419.769104 
z"/>
<path fill="#F28C83" opacity="1.000000" stroke="none" 
	d="
M379.883179,29.896263 
	C378.820831,29.772911 377.799683,29.244261 376.613892,28.399910 
	C377.607666,28.553125 378.766022,29.022047 379.883179,29.896263 
z"/>
<path fill="#F28C83" opacity="1.000000" stroke="none" 
	d="
M376.190369,27.770142 
	C375.967133,27.918312 375.496826,27.763777 374.756714,27.350445 
	C374.972382,27.216909 375.457855,27.342173 376.190369,27.770142 
z"/>
<path fill="#F28C83" opacity="1.000000" stroke="none" 
	d="
M374.204498,26.760777 
	C373.963135,26.935772 373.477753,26.796654 372.734131,26.374622 
	C372.970764,26.210028 373.465637,26.328344 374.204498,26.760777 
z"/>
<path fill="#699EF7" opacity="1.000000" stroke="none" 
	d="
M510.817505,217.617615 
	C510.633026,217.633682 510.462677,217.389267 510.153320,216.969604 
	C510.270996,216.992935 510.543427,217.180527 510.817505,217.617615 
z"/>
</svg>